<svg width="22" height="22" viewBox="0 0 22 22" fill="none" xmlns="http://www.w3.org/2000/svg">
<path d="M17.875 10.3126V6.18756" stroke="#EFEFEF" stroke-width="2" stroke-linecap="round" stroke-linejoin="round"/>
<path d="M19.9375 8.25006H15.8125" stroke="#EFEFEF" stroke-width="2" stroke-linecap="round" stroke-linejoin="round"/>
<path d="M13.75 2.75006V5.50006" stroke="#EFEFEF" stroke-width="2" stroke-linecap="round" stroke-linejoin="round"/>
<path d="M15.125 4.12506H12.375" stroke="#EFEFEF" stroke-width="2" stroke-linecap="round" stroke-linejoin="round"/>
<path d="M18.1064 13.5937C17.5774 13.6977 17.0394 13.7501 16.5002 13.7501C15.2809 13.749 14.077 13.478 12.9749 12.9564C11.8728 12.4347 10.8999 11.6755 10.126 10.7332C9.35224 9.79085 8.79675 8.68885 8.49946 7.50633C8.20217 6.3238 8.17048 5.09012 8.40665 3.89389C7.21332 4.33027 6.14917 5.06029 5.31248 6.01654C4.47578 6.97279 3.89351 8.12444 3.61943 9.36515C3.34536 10.6059 3.38831 11.8956 3.74433 13.1153C4.10035 14.3351 4.75795 15.4454 5.65641 16.3439C6.55487 17.2424 7.66523 17.9 8.88496 18.256C10.1047 18.612 11.3944 18.6549 12.6352 18.3809C13.8759 18.1068 15.0275 17.5245 15.9838 16.6878C16.94 15.8511 17.67 14.787 18.1064 13.5937Z" stroke="#EFEFEF" stroke-width="2" stroke-linecap="round" stroke-linejoin="round"/>
</svg>
